<svg width="24" height="24" viewBox="0 0 24 24" xmlns="http://www.w3.org/2000/svg"><path d="M22 20H2a2 2 0 0 1-2-2V3a2 2 0 0 1 2-2h20a2 2 0 0 1 2 2v15a2 2 0 0 1-2 2zM3 18h2v-5a1 1 0 0 0-2 0v5zm3 0h12v-6H6v6zm13 0h2v-5a1 1 0 0 0-2 0v5zM15.281 5.98l1.135-1.703a.5.5 0 1 0-.832-.554l-1.186 1.779a5.975 5.975 0 0 0-4.796 0L8.416 3.723a.5.5 0 1 0-.832.554L8.719 5.98A5.992 5.992 0 0 0 6 11h12a5.992 5.992 0 0 0-2.719-5.02zM10 9a1 1 0 1 1 0-2 1 1 0 0 1 0 2zm4 0a1 1 0 1 1 0-2 1 1 0 0 1 0 2zM6 21h12a1 1 0 0 1 0 2H6a1 1 0 0 1 0-2z" fill="#151922" fill-rule="evenodd"/></svg>